<!DOCTYPE svg PUBLIC "-//W3C//DTD SVG 1.1//EN" "http://www.w3.org/Graphics/SVG/1.1/DTD/svg11.dtd">
<!-- Uploaded to: SVG Repo, www.svgrepo.com, Transformed by: SVG Repo Mixer Tools -->
<svg height="800px" width="800px" version="1.1" id="Layer_1" xmlns="http://www.w3.org/2000/svg" xmlns:xlink="http://www.w3.org/1999/xlink" viewBox="0 0 512 512" xml:space="preserve" fill="#000000">
<g id="SVGRepo_bgCarrier" stroke-width="0"/>
<g id="SVGRepo_tracerCarrier" stroke-linecap="round" stroke-linejoin="round" stroke="#CCCCCC" stroke-width="3.072"/>
<g id="SVGRepo_iconCarrier"> <circle style="fill:#31363F;" cx="256" cy="256" r="256"/> <path style="fill:#222831;" d="M481.824,376.616c-0.288-0.828-0.648-1.628-0.984-2.436c-0.292-0.836-0.656-1.644-0.996-2.46 c-0.288-0.828-0.652-1.632-0.988-2.452c-0.292-0.836-0.656-1.64-0.996-2.46c-0.288-0.832-0.652-1.636-0.988-2.448 c-0.292-0.832-0.652-1.636-0.988-2.456c-0.296-0.836-0.656-1.64-1-2.46c-0.288-0.828-0.648-1.632-0.984-2.448 c-0.296-0.836-0.656-1.644-1-2.464c-0.288-0.832-0.648-1.632-0.984-2.444c-0.5-1.416-1.064-2.804-1.688-4.164 c-0.096-0.252-0.204-0.5-0.304-0.752c-0.288-0.836-0.656-1.644-0.992-2.464c-0.292-0.832-0.656-1.632-0.992-2.444 c-0.288-0.836-0.656-1.648-0.992-2.46c-0.292-0.832-0.652-1.636-0.988-2.452c-0.292-0.836-0.656-1.644-0.996-2.464 c-0.292-0.832-0.652-1.636-0.988-2.448c-0.292-0.836-0.656-1.64-0.996-2.456c-0.292-0.832-0.652-1.636-0.988-2.452 c-0.292-0.836-0.656-1.644-0.996-2.464c-0.292-0.832-0.652-1.632-0.988-2.444c-0.292-0.836-0.656-1.644-0.996-2.46 c-0.288-0.832-0.652-1.636-0.988-2.452c-0.292-0.832-0.652-1.64-0.992-2.452c-0.292-0.836-0.656-1.648-0.996-2.468 c-0.288-0.828-0.648-1.632-0.984-2.444c-0.296-0.836-0.656-1.644-1-2.46c-0.288-0.832-0.648-1.632-0.984-2.452 c-0.296-0.836-0.656-1.64-1-2.46c-0.288-0.836-0.648-1.636-0.984-2.448c-0.296-0.836-0.656-1.644-1-2.46 c-0.288-0.832-0.648-1.636-0.984-2.448c-0.292-0.836-0.656-1.648-1-2.468c-0.288-0.828-0.648-1.632-0.984-2.444 c-0.5-1.416-1.064-2.804-1.688-4.164c-0.096-0.252-0.204-0.5-0.3-0.752c-0.292-0.836-0.656-1.648-0.996-2.468 c-0.288-0.828-0.652-1.632-0.988-2.444c-0.292-0.836-0.656-1.644-0.996-2.46c-0.288-0.832-0.652-1.632-0.988-2.452 c-0.292-0.828-0.652-1.64-0.992-2.452c-0.292-0.836-0.656-1.644-0.996-2.464c-0.288-0.832-0.652-1.636-0.988-2.448 c-0.292-0.836-0.656-1.64-0.996-2.46c-0.288-0.828-0.652-1.632-0.988-2.448c-0.292-0.836-0.656-1.644-0.996-2.464 c-0.288-0.832-0.648-1.636-0.984-2.444c-0.296-0.836-0.656-1.648-1-2.464c-0.288-0.832-0.648-1.636-0.984-2.452 c-0.296-0.836-0.656-1.644-1-2.464c-0.288-0.832-0.648-1.636-0.984-2.448c-0.296-0.836-0.656-1.644-1-2.46 c-0.284-0.832-0.648-1.636-0.984-2.452c-0.292-0.836-0.656-1.644-1-2.464c-0.284-0.832-0.648-1.636-0.984-2.448 c-0.292-0.832-0.652-1.64-0.992-2.456c-0.292-0.836-0.656-1.644-0.996-2.46c-0.288-0.832-0.652-1.636-0.988-2.452 c-0.292-0.836-0.656-1.644-0.996-2.464c-0.296-0.844-0.66-1.66-1.004-2.488c-0.288-0.824-0.648-1.62-0.984-2.424 c-0.292-0.832-0.652-1.636-0.988-2.452c-0.292-0.836-0.656-1.644-0.996-2.464c-0.292-0.832-0.652-1.636-0.988-2.448 c-0.292-0.836-0.656-1.644-0.996-2.46c-0.288-0.832-0.652-1.636-0.988-2.452c-0.292-0.836-0.656-1.644-0.996-2.464 c-0.288-0.832-0.648-1.636-0.988-2.448c-0.292-0.836-0.652-1.644-0.996-2.46c-0.288-0.832-0.648-1.636-0.984-2.452 c-0.296-0.836-0.656-1.644-1-2.464c-0.288-0.832-0.648-1.636-0.984-2.448c-0.296-0.832-0.656-1.64-0.992-2.456 c-0.292-0.836-0.656-1.644-1-2.46c-0.288-0.832-0.648-1.636-0.984-2.452c-0.292-0.836-0.656-1.644-1-2.464 c-0.288-0.832-0.648-1.636-0.984-2.448c-0.292-0.836-0.656-1.644-1-2.46c-0.288-0.832-0.648-1.636-0.984-2.452 c-0.292-0.836-0.656-1.644-0.996-2.464c-0.292-0.832-0.652-1.636-0.988-2.448c-0.292-0.836-0.656-1.644-0.996-2.46 c-0.292-0.832-0.652-1.636-0.988-2.452c-0.292-0.836-0.656-1.644-0.996-2.464c-0.296-0.844-0.66-1.66-1.004-2.488 c-0.288-0.824-0.648-1.62-0.984-2.424c-0.288-0.832-0.652-1.636-0.988-2.452c-0.292-0.836-0.656-1.644-0.996-2.464 c-0.288-0.832-0.652-1.636-0.988-2.448c-0.292-0.832-0.652-1.64-0.988-2.456c-0.296-0.836-0.656-1.644-1-2.46 c-0.288-0.832-0.648-1.636-0.984-2.452c-0.296-0.836-0.656-1.644-1-2.464c-0.288-0.832-0.648-1.636-0.984-2.448 c-0.296-0.836-0.656-1.644-1-2.46c-0.284-0.832-0.648-1.636-0.984-2.452c-6.896-19.6-26.588-34.392-47.58-34.392h-12h-116h-36 c-1.344,0-2.676,0.08-4.004,0.2c-0.472,0.044-0.94,0.104-1.412,0.164c-0.852,0.1-1.688,0.224-2.532,0.372 c-0.556,0.1-1.104,0.2-1.664,0.32c-0.764,0.168-1.532,0.36-2.284,0.564c-0.544,0.144-1.084,0.268-1.62,0.428 c-18.324,5.552-33.408,21.808-36.188,40.964l-28.264,183.78c-1.312,4.172-2.032,8.604-2.032,13.208v20 c0,6.376,1.4,12.424,3.844,17.9c0.312,0.832,0.632,1.656,0.996,2.464c0.308,0.828,0.628,1.648,0.988,2.444 c0.312,0.836,0.632,1.656,0.996,2.468c0.308,0.828,0.628,1.648,0.988,2.444c0.312,0.832,0.632,1.656,0.996,2.464 c0.308,0.828,0.628,1.648,0.988,2.448c0.312,0.828,0.632,1.648,0.992,2.452c0.312,0.836,0.632,1.656,0.996,2.464 c0.308,0.828,0.628,1.648,0.988,2.448c0.312,0.832,0.632,1.656,0.992,2.46c0.32,0.836,0.64,1.672,1.008,2.484 c0.304,0.82,0.624,1.632,0.984,2.428c0.304,0.828,0.624,1.648,0.984,2.448c0.312,0.832,0.632,1.652,1,2.464 c0.304,0.828,0.624,1.648,0.984,2.444c0.312,0.832,0.632,1.656,1,2.464c0.304,0.828,0.624,1.648,0.984,2.448 c0.312,0.828,0.632,1.656,1,2.46c0.304,0.828,0.624,1.648,0.984,2.448c0.312,0.832,0.632,1.656,1,2.464 c0.304,0.828,0.624,1.648,0.984,2.444c0.312,0.836,0.632,1.656,0.996,2.468c0.308,0.828,0.628,1.648,0.988,2.444 c0.312,0.832,0.632,1.652,0.992,2.456c0.312,0.832,0.632,1.656,0.996,2.464c0.308,0.828,0.628,1.648,0.988,2.444 c0.312,0.836,0.632,1.656,0.996,2.464c0.308,0.828,0.628,1.648,0.988,2.448c0.312,0.832,0.632,1.656,0.996,2.46 c0.308,0.828,0.628,1.648,0.988,2.448c0.312,0.832,0.632,1.656,0.996,2.464c0.308,0.828,0.628,1.648,0.988,2.448 c0.312,0.832,0.632,1.652,0.992,2.464c0.312,0.828,0.632,1.648,0.992,2.444c0.312,0.832,0.632,1.656,0.992,2.464 c0.312,0.836,0.64,1.668,1.008,2.484c0.304,0.82,0.624,1.628,0.984,2.424c0.304,0.828,0.624,1.648,0.984,2.448 c0.312,0.832,0.632,1.656,1,2.464c0.304,0.828,0.624,1.648,0.984,2.444c0.312,0.836,0.632,1.656,0.992,2.46 c0.132,0.352,0.284,0.696,0.424,1.048C174.048,501.736,213.812,512,256,512C353.764,512,438.704,457.18,481.824,376.616z"/> <path style="fill:#31363F;" d="M414,360H98c-1.16,0-2.264-0.504-3.024-1.384C94.22,357.744,94,352,94,344l30.296-196.988 C127.736,123.296,150.036,104,174,104h164c23.964,0,46.256,19.296,49.704,43.012L418,344c0,4-0.22,13.744-0.976,14.616 C416.264,359.496,415.16,360,414,360z"/> <g> <path style="fill:#222831;" d="M387.704,147.012C384.256,123.296,361.964,104,338,104h-12c23.964,0,46.256,19.296,49.704,43.012 L406,344c0,4-0.22,13.744-0.976,14.616c-0.76,0.88-1.864,1.384-3.024,1.384h12c1.16,0,2.264-0.504,3.024-1.384 C417.78,357.744,418,348,418,344L387.704,147.012z"/> <path style="fill:#222831;" d="M374,408H138c-24.256,0-44-19.744-44-44v-20c0-24.256,19.744-44,44-44h236c24.256,0,44,19.744,44,44 v20C418,388.256,398.256,408,374,408z"/> </g> <path style="fill:#31363F;" d="M138,400c-19.852,0-36-16.152-36-36v-20c0-19.848,16.148-36,36-36h236c19.852,0,36,16.152,36,36v20 c0,19.848-16.148,36-36,36H138z"/> <circle style="fill:#F5F5F5;" cx="347.32" cy="354" r="20"/> <circle style="fill:#31363F;" cx="347.32" cy="354" r="12"/> <path style="fill:#FFFFFF;" d="M228,256c-2.048,0-4.08-0.528-5.868-1.532C218.348,252.344,216,248.332,216,244v-80 c0-4.188,2.124-8.004,5.688-10.208c3.48-2.152,8.032-2.352,11.684-0.524l71.996,36c3.908,1.952,6.44,5.872,6.62,10.228 c0.188,4.352-2.008,8.472-5.732,10.748l-72,44C232.376,255.392,230.212,256,228,256z M228,160c-0.744,0-1.468,0.208-2.1,0.596 c-1.172,0.724-1.9,2.028-1.9,3.404v80c0,1.444,0.78,2.784,2.044,3.492c1.24,0.688,2.832,0.664,4.044-0.076l72-44 c1.248-0.756,1.976-2.128,1.916-3.58c-0.064-1.456-0.908-2.76-2.212-3.412l-72-36C229.236,160.144,228.616,160,228,160z"/> </g>
</svg>